# Wavefront OBJ exported by MilkShape 3D

v 0.041250 0.275000 0.275000
v 0.041250 -0.275000 0.275000
v 0.041250 -0.275000 -0.275000
v 0.041250 0.275000 -0.275000
v -0.041250 -0.275000 -0.275000
v -0.041250 -0.275000 0.275000
v -0.041250 0.275000 0.275000
v -0.041250 0.275000 -0.275000
# 8 vertices

vt 0.000000 1.000000
# 1 texture coordinates

vn 0.666667 0.666667 0.333333
vn 0.333333 -0.666667 0.666667
vn 0.816497 -0.408248 -0.408248
vn 0.408248 0.408248 -0.816497
vn -0.577350 -0.577350 -0.577350
vn -0.577350 -0.577350 0.577350
vn -0.666667 0.333333 0.666667
vn -0.408248 0.816497 -0.408248
# 8 normals

g Regroup01
s 1
f 1/1/1 2/1/2 3/1/3
f 3/1/3 4/1/4 1/1/1
f 5/1/5 6/1/6 7/1/7
f 7/1/7 8/1/8 5/1/5
f 2/1/2 5/1/5 3/1/3
f 2/1/2 6/1/6 5/1/5
f 3/1/3 5/1/5 4/1/4
f 4/1/4 5/1/5 8/1/8
f 1/1/1 4/1/4 8/1/8
f 1/1/1 8/1/8 7/1/7
f 7/1/7 6/1/6 2/1/2
f 2/1/2 1/1/1 7/1/7
# 12 triangles in group

# 12 triangles total

