# Wavefront OBJ exported by MilkShape 3D

v 0.908217 0.010940 0.006461
v 0.995436 2.299448 0.006461
v 1.124905 2.364046 0.006461
v 1.077658 2.783946 0.006461
v 0.642206 0.010940 0.648667
v 0.703880 2.299448 0.710341
v 0.795428 2.364046 0.801889
v 0.762019 2.783946 0.768480
v 0.000000 0.010940 0.914677
v 0.000000 2.299448 1.001897
v 0.000000 2.364046 1.131366
v 0.000000 2.783946 1.084119
v -0.642206 0.010940 0.648667
v -0.703880 2.299448 0.710341
v -0.795428 2.364046 0.801889
v -0.762019 2.783946 0.768480
v -0.908217 0.010940 0.006461
v -0.995436 2.299448 0.006461
v -1.124905 2.364046 0.006461
v -1.077658 2.783946 0.006461
v -0.642206 0.010940 -0.635745
v -0.703880 2.299448 -0.697419
v -0.795428 2.364046 -0.788967
v -0.762019 2.783946 -0.755558
v 0.000000 0.010940 -0.901755
v 0.000000 2.299448 -0.988975
v 0.000000 2.364046 -1.118444
v 0.000000 2.783946 -1.071197
v 0.642206 0.010940 -0.635745
v 0.703880 2.299448 -0.697419
v 0.795428 2.364046 -0.788967
v 0.762019 2.783946 -0.755558
v -0.111233 2.781623 0.545408
v 0.111233 2.781783 0.545408
v 0.111233 2.781783 -0.545405
v -0.111233 2.781783 -0.545405
v -0.111233 3.049113 0.397603
v 0.111233 3.049273 0.397603
v 0.111233 3.049273 -0.397600
v -0.111233 3.049273 -0.397600
v 0.111233 2.781783 -0.365187
v -0.111233 2.781783 -0.365187
v 0.111233 2.953909 -0.266221
v -0.111233 2.953909 -0.266221
v 0.111233 2.781783 0.365190
v -0.111233 2.781783 0.365190
v 0.111233 2.953909 0.266224
v -0.111233 2.953909 0.266224
# 48 vertices

vt 0.000000 1.000000
vt 0.000000 0.000000
vt 0.000000 0.333333
vt 0.125000 0.000000
vt 0.125000 0.333333
vt 0.000000 0.666667
vt 0.125000 0.666667
vt 0.125000 1.000000
vt 0.250000 0.333333
vt 0.250000 0.000000
vt 0.250000 0.666667
vt 0.250000 1.000000
vt 0.375000 0.000000
vt 0.375000 0.333333
vt 0.375000 0.666667
vt 0.375000 1.000000
vt 0.500000 0.333333
vt 0.500000 0.000000
vt 0.500000 0.666667
vt 0.500000 1.000000
vt 0.625000 0.000000
vt 0.625000 0.333333
vt 0.625000 0.666667
vt 0.625000 1.000000
vt 0.750000 0.333333
vt 0.750000 0.000000
vt 0.750000 0.666667
vt 0.750000 1.000000
vt 0.875000 0.000000
vt 0.875000 0.333333
vt 0.875000 0.666667
vt 0.875000 1.000000
vt 1.000000 0.333333
vt 1.000000 0.000000
vt 1.000000 0.666667
vt 1.000000 1.000000
# 36 texture coordinates

vn 0.000000 -1.000000 0.000000
vn 0.000000 1.000000 0.000000
vn 0.999275 -0.038084 -0.000000
vn 0.830117 -0.557590 -0.000000
vn 0.706594 -0.038084 0.706594
vn 0.586982 -0.557589 0.586981
vn 0.868100 -0.496390 -0.000000
vn 0.613839 -0.496389 0.613840
vn 0.993729 0.111814 -0.000000
vn 0.702673 0.111814 0.702673
vn -0.000000 -0.557589 0.830117
vn 0.000000 -0.038085 0.999274
vn 0.000000 -0.496389 0.868100
vn 0.000000 0.111814 0.993729
vn -0.706594 -0.038084 0.706594
vn -0.586982 -0.557589 0.586981
vn -0.613839 -0.496389 0.613840
vn -0.702673 0.111814 0.702673
vn -0.830117 -0.557590 -0.000000
vn -0.999275 -0.038084 -0.000000
vn -0.868100 -0.496390 -0.000000
vn -0.993729 0.111814 -0.000000
vn -0.706594 -0.038085 -0.706594
vn -0.586981 -0.557590 -0.586981
vn -0.613839 -0.496389 -0.613840
vn -0.702672 0.111814 -0.702673
vn -0.000000 -0.557590 -0.830117
vn 0.000000 -0.038085 -0.999274
vn -0.000000 -0.496389 -0.868100
vn 0.000000 0.111815 -0.993729
vn 0.706594 -0.038085 -0.706594
vn 0.586981 -0.557590 -0.586981
vn 0.613839 -0.496389 -0.613840
vn 0.702672 0.111814 -0.702673
vn 0.866138 -0.432620 0.250291
vn -0.654847 -0.654169 0.378467
vn 0.707107 -0.352455 0.613005
vn -0.894427 -0.222912 0.387699
vn 0.707107 -0.352455 -0.613005
vn -0.603193 -0.602256 -0.522920
vn 0.603193 -0.753523 -0.261460
vn -0.894427 -0.222912 -0.387699
vn -1.000000 0.000000 0.000000
vn 1.000000 0.000000 0.000000
vn -0.000348 0.483640 0.875267
vn -0.000538 0.747062 0.664754
vn -0.000405 0.943122 0.332445
vn -0.000209 0.861315 -0.508071
vn 0.000000 0.483640 -0.875267
# 49 normals

g Regroup01
s 2
f 1/1/1 5/1/1 29/1/1
f 4/1/2 32/1/2 8/1/2
f 5/1/1 9/1/1 29/1/1
f 8/1/2 32/1/2 12/1/2
f 29/1/1 9/1/1 25/1/1
f 32/1/2 28/1/2 12/1/2
f 9/1/1 13/1/1 25/1/1
f 12/1/2 28/1/2 16/1/2
f 25/1/1 13/1/1 21/1/1
f 28/1/2 24/1/2 16/1/2
f 13/1/1 17/1/1 21/1/1
f 16/1/2 24/1/2 20/1/2
s 1
f 1/2/3 2/3/4 5/4/5
f 2/3/4 6/5/6 5/4/5
f 2/3/4 3/6/7 7/7/8
f 2/3/4 7/7/8 6/5/6
f 3/6/7 4/1/9 7/7/8
f 4/1/9 8/8/10 7/7/8
f 5/4/5 6/5/6 10/9/11
f 5/4/5 10/9/11 9/10/12
f 6/5/6 7/7/8 10/9/11
f 7/7/8 11/11/13 10/9/11
f 7/7/8 8/8/10 12/12/14
f 7/7/8 12/12/14 11/11/13
f 9/10/12 10/9/11 13/13/15
f 10/9/11 14/14/16 13/13/15
f 10/9/11 11/11/13 15/15/17
f 10/9/11 15/15/17 14/14/16
f 11/11/13 12/12/14 15/15/17
f 12/12/14 16/16/18 15/15/17
f 13/13/15 14/14/16 18/17/19
f 13/13/15 18/17/19 17/18/20
f 14/14/16 15/15/17 18/17/19
f 15/15/17 19/19/21 18/17/19
f 15/15/17 16/16/18 20/20/22
f 15/15/17 20/20/22 19/19/21
f 17/18/20 18/17/19 21/21/23
f 18/17/19 22/22/24 21/21/23
f 18/17/19 19/19/21 23/23/25
f 18/17/19 23/23/25 22/22/24
f 19/19/21 20/20/22 23/23/25
f 20/20/22 24/24/26 23/23/25
f 21/21/23 22/22/24 26/25/27
f 21/21/23 26/25/27 25/26/28
f 22/22/24 23/23/25 26/25/27
f 23/23/25 27/27/29 26/25/27
f 23/23/25 24/24/26 28/28/30
f 23/23/25 28/28/30 27/27/29
f 25/26/28 26/25/27 29/29/31
f 26/25/27 30/30/32 29/29/31
f 26/25/27 27/27/29 31/31/33
f 26/25/27 31/31/33 30/30/32
f 27/27/29 28/28/30 31/31/33
f 28/28/30 32/32/34 31/31/33
f 29/29/31 30/30/32 2/33/4
f 29/29/31 2/33/4 1/34/3
f 30/30/32 31/31/33 2/33/4
f 31/31/33 3/35/7 2/33/4
f 31/31/33 32/32/34 4/36/9
f 31/31/33 4/36/9 3/35/7
s 4
f 43/1/35 44/1/36 41/1/37
f 42/1/38 41/1/37 44/1/36
f 45/1/39 48/1/40 47/1/41
f 48/1/40 45/1/39 46/1/42
f 47/1/41 48/1/40 44/1/36
f 44/1/36 43/1/35 47/1/41
f 36/1/43 42/1/38 40/1/43
f 40/1/43 42/1/38 44/1/36
f 44/1/36 48/1/40 37/1/43
f 37/1/43 40/1/43 44/1/36
f 46/1/42 33/1/43 37/1/43
f 37/1/43 48/1/40 46/1/42
f 45/1/39 47/1/41 38/1/44
f 38/1/44 34/1/44 45/1/39
f 41/1/37 35/1/44 39/1/44
f 39/1/44 43/1/35 41/1/37
f 43/1/35 39/1/44 38/1/44
f 38/1/44 47/1/41 43/1/35
s 1
f 33/1/45 34/1/45 38/1/46
f 38/1/46 37/1/47 33/1/45
f 37/1/47 38/1/46 39/1/48
f 40/1/48 37/1/47 39/1/48
f 35/1/49 36/1/49 39/1/48
f 39/1/48 36/1/49 40/1/48
# 84 triangles in group

# 84 triangles total

