# 3ds Max Wavefront OBJ Exporter v0.97b - (c)2007 guruware
# File Created: 20.06.2011 16:01:02

mtllib 74.mtl

#
# object Pyramid001
#

v  -0.1382 35.0300 0.1510
v  -59.5641 -4.8225 60.0724
v  59.2877 -4.8225 60.0724
v  59.2877 -4.8225 -59.7704
v  -59.5641 -4.8225 -59.7704
v  -0.1382 -4.8225 0.1510
# 6 vertices

vn 0.0000 0.8327 0.5538
vn 0.0000 0.8327 0.5538
vn 0.0000 0.8327 0.5538
vn 0.5570 0.8305 -0.0000
vn 0.5570 0.8305 -0.0000
vn 0.5570 0.8305 -0.0000
vn 0.0000 0.8327 -0.5538
vn 0.0000 0.8327 -0.5538
vn 0.0000 0.8327 -0.5538
vn -0.5570 0.8305 -0.0000
vn -0.5570 0.8305 -0.0000
vn -0.5570 0.8305 -0.0000
vn 0.0000 -1.0000 -0.0000
vn 0.0000 -1.0000 -0.0000
vn 0.0000 -1.0000 -0.0000
vn 0.0000 -1.0000 -0.0000
vn 0.0000 -1.0000 -0.0000
vn 0.0000 -1.0000 -0.0000
vn 0.0000 -1.0000 -0.0000
vn 0.0000 -1.0000 -0.0000
vn 0.0000 -1.0000 -0.0000
vn 0.0000 -1.0000 -0.0000
vn 0.0000 -1.0000 -0.0000
vn 0.0000 -1.0000 -0.0000
# 24 vertex normals

vt 59.4259 39.8525 0.0000
vt 0.0000 0.0000 0.0000
vt 118.8519 0.0000 0.0000
vt 0.4955 0.0000 0.0000
vt 120.3383 0.0000 0.0000
vt 0.0000 119.8428 0.0000
vt 118.8519 119.8428 0.0000
vt 118.8519 0.0000 0.0000
vt 0.0000 0.0000 0.0000
vt 59.4259 59.9214 0.0000
vt 59.9214 39.8525 0.0000
# 11 texture coords

g Pyramid001
usemtl wire_141007058
s 4
f 1/1/1 2/2/2 3/3/3 
s 2
f 1/11/4 3/4/5 4/5/6 
s 16
f 1/1/7 4/2/8 5/3/9 
s 32
f 1/11/10 5/4/11 2/5/12 
s 8
f 2/6/13 6/10/14 3/7/15 
f 3/7/16 6/10/17 4/8/18 
f 4/8/19 6/10/20 5/9/21 
f 5/9/22 6/10/23 2/6/24 
# 8 faces

