# 3ds Max Wavefront OBJ Exporter v0.97b - (c)2007 guruware
# File Created: 18.06.2012 11:30:01

mtllib ramp_attached.mtl

#
# object objobjRegroup03
#

v  4.00000000 3.50049996 -3.00000000
v  4.00000000 12.50020027 13.00000000
v  -4.00000000 12.50020027 13.00000000
v  -4.00000000 3.50049996 -3.00000000
v  4.00000000 12.50049973 15.00000000
v  -4.00000000 12.50020027 15.00000000
v  4.00000000 3.50049996 -5.00000000
v  -4.00000000 3.50020003 -5.00000000
v  -4.00000000 -3.99950004 -3.00000000
v  -4.00000000 -3.99979997 -5.00000000
v  -4.00000000 5.00019979 13.00000000
v  -4.00000000 5.00019979 15.00000000
v  4.00000000 -3.99950004 -5.00000000
v  4.00000000 -3.99950004 -3.00000000
v  4.00000000 5.00019979 13.00000000
v  4.00000000 5.00050020 15.00000000
v  -5.00000000 14.00020027 15.00000000
v  -5.00000000 -3.99979997 15.00000000
v  -5.00000000 -3.99979997 -5.00000000
v  -5.00000000 5.00019979 -5.00000000
v  -5.00000000 5.00019979 -3.00000000
v  -5.00000000 14.00020027 13.00000000
v  5.00000000 14.00049973 15.00000000
v  5.00000000 -3.99950004 15.00000000
v  5.00000000 14.00049973 13.00000000
v  5.00000000 5.00050020 -3.00000000
v  5.00000000 5.00050020 -5.00000000
v  5.00000000 -3.99950004 -5.00000000
v  -4.00000000 -3.99979997 13.00000000
v  4.00000000 -3.99979997 13.00000000
v  -4.00000000 6.01314354 14.99088955
v  4.00000000 6.01314354 14.99088955
v  4.00000000 -4.90103054 -5.02712154
v  -4.00000000 -4.90103054 -5.02712154
v  -5.00000000 -4.89999962 15.00000000
v  -5.00000000 -3.99999976 15.00000000
v  -5.00000000 -3.99999976 -5.00000000
v  -5.00000000 -4.89999962 -5.00000000
v  -4.00000000 -3.99999976 -5.00000000
v  -4.00000000 -4.89999962 -5.00000000
v  4.00000000 -4.89999962 15.00000000
v  4.00000000 -3.99999976 15.00000000
v  4.00000000 -3.99999976 -5.00000000
v  4.00000000 -4.89999962 -5.00000000
v  5.00000000 -3.99999976 -5.00000000
v  5.00000000 -4.89999962 -5.00000000
v  5.00000000 -3.99999976 15.00000000
v  5.00000000 -4.89999962 15.00000000
v  -4.00000000 -3.99999976 15.00000000
v  -4.00000000 -4.89999962 15.00000000
v  -5.03662348 5.15034103 -2.96066523
v  4.96337652 5.15034103 -2.96066523
v  4.96337652 14.01396942 12.70573425
v  -5.03662348 14.01396942 12.70573425
# 54 vertices

vn -0.76880002 -0.61860001 0.16200000
vn -0.65429997 -0.73159999 0.19170000
vn 0.65429997 -0.73159999 0.19159999
vn 0.76880002 -0.61860001 0.16210000
vn -0.30149999 -0.30149999 0.90460002
vn 0.30149999 -0.30149999 0.90450001
vn -0.30149999 -0.30149999 -0.90450001
vn 0.30160001 -0.30149999 -0.90450001
vn 0.81650001 0.40820000 -0.40830001
vn 0.57730001 0.57730001 -0.57740003
vn 0.90450001 0.30149999 -0.30149999
vn 0.30149999 0.30149999 0.90450001
vn -0.57730001 0.57730001 -0.57740003
vn -0.81650001 0.40820000 -0.40820000
vn -0.90450001 0.30149999 -0.30160001
vn -0.30160001 0.30149999 0.90450001
vn -0.57740003 0.57730001 0.57740003
vn -0.70709997 0.00000000 0.70709997
vn -0.70709997 0.00000000 -0.70709997
vn -0.57740003 0.57730001 -0.57740003
vn -0.76880002 0.61860001 -0.16200000
vn -0.65429997 0.73159999 -0.19159999
vn 0.57730001 0.57740003 0.57730001
vn 0.70709997 0.00000000 0.70709997
vn 0.65429997 0.73159999 -0.19159999
vn 0.76880002 0.61860001 -0.16200000
vn 0.57730001 0.57740003 -0.57730001
vn 0.70709997 0.00000000 -0.70709997
vn 1.00000000 0.00000000 -0.00000000
vn -1.00000000 0.00000000 -0.00000000
vn 0.00000000 0.87798291 -0.47869182
vn 0.00000000 0.00000000 -1.00000000
vn 0.00000000 0.00000000 1.00000000
vn 0.00000000 -0.87035555 0.49242380
# 34 vertex normals

vt 0.38743815 0.67570341 0.00000000
vt 0.64471686 0.67570341 0.00000000
vt 0.64471686 0.80434281 0.00000000
vt 0.38743815 0.80434281 0.00000000
vt 0.67687672 0.67570341 0.00000000
vt 0.67687672 0.80434281 0.00000000
vt 0.35527828 0.67570341 0.00000000
vt 0.35527828 0.80434281 0.00000000
vt 0.04215984 0.78095138 0.00000000
vt 0.04215984 0.90155083 0.00000000
vt 0.01000000 0.90155566 0.00000000
vt 0.01000000 0.78095621 0.00000000
vt 0.29943857 0.75683630 0.00000000
vt 0.29943857 0.63623697 0.00000000
vt 0.33159843 0.63623697 0.00000000
vt 0.33159843 0.75683630 0.00000000
vt 0.67687672 0.27531868 0.00000000
vt 0.64471686 0.27531868 0.00000000
vt 0.64471686 0.15471929 0.00000000
vt 0.67687672 0.15471929 0.00000000
vt 0.38743815 0.13060424 0.00000000
vt 0.38743815 0.01000481 0.00000000
vt 0.35527828 0.01000000 0.00000000
vt 0.35527828 0.13059939 0.00000000
vt 0.84527588 0.15471929 0.00000000
vt 0.96587527 0.15471929 0.00000000
vt 0.98999518 0.17079923 0.00000000
vt 0.96588004 0.02607992 0.00000000
vt 0.84528071 0.02607992 0.00000000
vt 0.70055658 0.17079923 0.00000000
vt 0.37135822 0.98064005 0.00000000
vt 0.35527828 0.98064005 0.00000000
vt 0.35527828 0.83592069 0.00000000
vt 0.37135822 0.86004061 0.00000000
vt 0.49999759 0.86003584 0.00000000
vt 0.29943857 0.15471929 0.00000000
vt 0.33159843 0.15471929 0.00000000
vt 0.33159843 0.29943857 0.00000000
vt 0.01000000 0.29943857 0.00000000
vt 0.04215984 0.01000000 0.00000000
vt 0.01000000 0.01000000 0.00000000
vt 0.98999995 0.01000000 0.00000000
vt 0.70056134 0.01000000 0.00000000
vt 0.35527828 0.48391765 0.00000000
vt 0.35527828 0.32311848 0.00000000
vt 0.38743815 0.32311848 0.00000000
vt 0.38743815 0.48391765 0.00000000
vt 0.64471686 0.32311848 0.00000000
vt 0.64471686 0.48391765 0.00000000
vt 0.49999759 0.98063523 0.00000000
vt 0.51607752 0.83591592 0.00000000
vt 0.51607752 0.98063523 0.00000000
vt 0.67687672 0.32311848 0.00000000
vt 0.67687672 0.48391765 0.00000000
vt 0.04215984 0.46783772 0.00000000
vt 0.01000000 0.61255699 0.00000000
vt 0.01000000 0.46783772 0.00000000
vt 0.33159843 0.61255699 0.00000000
vt 0.29943857 0.32311848 0.00000000
vt 0.33159843 0.32311848 0.00000000
vt 0.29943857 0.90155566 0.00000000
vt 0.38743815 0.27532351 0.00000000
vt 0.35527828 0.64413023 0.00000000
vt 0.35527828 0.51549083 0.00000000
vt 0.67716640 0.51549083 0.00000000
vt 0.67716640 0.64413023 0.00000000
vt 0.53975737 0.88853967 0.00000000
vt 0.53975737 0.87406772 0.00000000
vt 0.86135584 0.87406772 0.00000000
vt 0.86135584 0.88853967 0.00000000
vt 0.70873946 0.51549083 0.00000000
vt 0.72481942 0.51549083 0.00000000
vt 0.72481942 0.52996278 0.00000000
vt 0.70873946 0.52996278 0.00000000
vt 0.01000000 0.93970746 0.00000000
vt 0.01000000 0.92523551 0.00000000
vt 0.33159843 0.92523551 0.00000000
vt 0.33159843 0.93970746 0.00000000
vt 0.70844984 0.67570341 0.00000000
vt 0.72452980 0.67570341 0.00000000
vt 0.72452980 0.69017535 0.00000000
vt 0.70844984 0.69017535 0.00000000
vt 0.33159843 0.96338725 0.00000000
vt 0.33159843 0.97785926 0.00000000
vt 0.01000000 0.97785926 0.00000000
vt 0.01000000 0.96338725 0.00000000
vt 0.86135584 0.83591592 0.00000000
vt 0.86135584 0.85038787 0.00000000
vt 0.53975737 0.85038787 0.00000000
vt 0.53975737 0.83591592 0.00000000
vt 0.86135584 0.21684432 0.00000000
vt 0.70055658 0.21684432 0.00000000
vt 0.70055658 0.20237240 0.00000000
vt 0.86135584 0.20237240 0.00000000
vt 0.70844984 0.48391765 0.00000000
vt 0.70844984 0.32311848 0.00000000
vt 0.96036434 0.32311848 0.00000000
vt 0.96036434 0.48391765 0.00000000
# 98 texture coords

g objobjRegroup03
usemtl 07___Default
s 2
f 1/1/1 2/2/2 3/3/3 
f 3/3/3 4/4/4 1/1/1 
f 2/2/2 5/5/5 6/6/6 
f 6/6/6 3/3/3 2/2/2 
f 7/7/7 1/1/1 4/4/4 
f 4/4/4 8/8/8 7/7/7 
f 4/9/4 9/10/9 10/11/10 
f 10/11/10 8/12/8 4/9/4 
f 9/10/9 4/9/4 11/13/11 
f 11/13/11 4/9/4 3/14/3 
f 3/14/3 6/15/6 11/13/11 
f 11/13/11 6/15/6 12/16/12 
f 13/17/13 14/18/14 1/19/1 
f 1/19/1 7/20/7 13/17/13 
f 14/18/14 15/21/15 1/19/1 
f 1/19/1 15/21/15 2/22/2 
f 2/22/2 15/21/15 5/23/5 
f 5/23/5 15/21/15 16/24/16 
f 12/25/12 6/26/6 17/27/17 
f 17/27/17 6/26/6 5/28/5 
f 16/29/16 12/25/12 18/30/18 
f 10/31/10 19/32/19 20/33/20 
f 20/33/20 8/34/8 10/31/10 
f 7/35/7 8/34/8 20/33/20 
f 21/36/21 20/37/20 19/38/19 
f 18/30/18 12/25/12 17/27/17 
f 21/36/21 18/39/18 22/40/22 
f 22/40/22 18/39/18 17/41/17 
f 19/38/19 18/39/18 21/36/21 
f 23/42/23 5/28/5 16/29/16 
f 5/28/5 23/42/23 17/27/17 
f 18/30/18 24/43/24 16/29/16 
f 17/44/17 23/45/23 25/46/25 
f 25/46/25 22/47/22 17/44/17 
f 22/47/22 25/46/25 26/48/26 
f 22/47/22 26/48/26 21/49/21 
f 13/50/13 7/35/7 27/51/27 
f 13/50/13 27/51/27 28/52/28 
f 20/33/20 27/51/27 7/35/7 
f 21/49/21 26/48/26 27/53/27 
f 27/53/27 20/54/20 21/49/21 
f 26/55/26 28/56/28 27/57/27 
f 16/29/16 24/43/24 23/42/23 
f 24/58/24 28/56/28 26/55/26 
f 24/58/24 26/55/26 25/59/25 
f 25/59/25 23/60/23 24/58/24 
f 9/10/9 11/13/11 29/61/29 
f 30/62/30 15/21/15 14/18/14 
s 1
f 31/63/31 32/64/31 33/65/31 
f 33/65/31 34/66/31 31/63/31 
f 35/67/30 36/68/30 37/69/30 
f 37/69/30 38/70/30 35/67/30 
f 37/71/32 39/72/32 40/73/32 
f 40/73/32 38/74/32 37/71/32 
f 41/75/30 42/76/30 43/77/30 
f 43/77/30 44/78/30 41/75/30 
f 43/79/32 45/80/32 46/81/32 
f 46/81/32 44/82/32 43/79/32 
f 47/83/29 48/84/29 46/85/29 
f 46/85/29 45/86/29 47/83/29 
f 49/87/29 50/88/29 40/89/29 
f 40/89/29 39/90/29 49/87/29 
f 35/91/33 48/92/33 47/93/33 
f 47/93/33 36/94/33 35/91/33 
f 51/95/34 52/96/34 53/97/34 
f 53/97/34 54/98/34 51/95/34 
# 66 faces

